<svg width="62" height="34" viewBox="0 0 62 34" xmlns="http://www.w3.org/2000/svg" shape-rendering="crispEdges">
  <path fill="#000000" d="M2 0h58v1h-58zM2 1h58v1h-58zM2 2h2v1h-2zM20 2h2v1h-2zM32 2h2v1h-2zM44 2h2v1h-2zM52 2h2v1h-2zM58 2h2v1h-2zM2 3h2v1h-2zM20 3h2v1h-2zM32 3h2v1h-2zM44 3h2v1h-2zM52 3h2v1h-2zM58 3h2v1h-2zM2 4h2v1h-2zM20 4h2v1h-2zM32 4h2v1h-2zM44 4h2v1h-2zM58 4h2v1h-2zM2 5h2v1h-2zM20 5h2v1h-2zM32 5h2v1h-2zM44 5h2v1h-2zM58 5h2v1h-2zM2 6h2v1h-2zM20 6h2v1h-2zM32 6h2v1h-2zM44 6h2v1h-2zM58 6h2v1h-2zM2 7h2v1h-2zM20 7h2v1h-2zM32 7h2v1h-2zM44 7h2v1h-2zM58 7h2v1h-2zM2 8h2v1h-2zM20 8h2v1h-2zM32 8h2v1h-2zM44 8h2v1h-2zM58 8h2v1h-2zM2 9h2v1h-2zM20 9h2v1h-2zM32 9h2v1h-2zM44 9h2v1h-2zM58 9h2v1h-2zM2 10h2v1h-2zM8 10h2v1h-2zM14 10h2v1h-2zM20 10h2v1h-2zM32 10h2v1h-2zM44 10h2v1h-2zM58 10h2v1h-2zM2 11h2v1h-2zM8 11h2v1h-2zM14 11h2v1h-2zM20 11h2v1h-2zM32 11h2v1h-2zM44 11h2v1h-2zM58 11h2v1h-2zM2 12h2v1h-2zM8 12h2v1h-2zM14 12h2v1h-2zM20 12h2v1h-2zM32 12h2v1h-2zM44 12h2v1h-2zM50 12h2v1h-2zM58 12h2v1h-2zM2 13h2v1h-2zM8 13h2v1h-2zM14 13h2v1h-2zM20 13h2v1h-2zM32 13h2v1h-2zM44 13h2v1h-2zM50 13h2v1h-2zM58 13h2v1h-2zM2 14h2v1h-2zM8 14h2v1h-2zM14 14h2v1h-2zM20 14h2v1h-2zM32 14h2v1h-2zM44 14h2v1h-2zM50 14h2v1h-2zM58 14h2v1h-2zM2 15h2v1h-2zM8 15h2v1h-2zM14 15h2v1h-2zM20 15h2v1h-2zM32 15h2v1h-2zM44 15h2v1h-2zM50 15h2v1h-2zM58 15h2v1h-2zM0 16h62v1h-62zM0 17h62v1h-62zM0 18h2v1h-2zM12 18h2v1h-2zM24 18h2v1h-2zM36 18h2v1h-2zM42 18h2v1h-2zM52 18h2v1h-2zM60 18h2v1h-2zM0 19h2v1h-2zM12 19h2v1h-2zM24 19h2v1h-2zM36 19h2v1h-2zM42 19h2v1h-2zM52 19h2v1h-2zM60 19h2v1h-2zM0 20h2v1h-2zM12 20h2v1h-2zM24 20h2v1h-2zM36 20h2v1h-2zM42 20h2v1h-2zM52 20h2v1h-2zM60 20h2v1h-2zM0 21h2v1h-2zM12 21h2v1h-2zM24 21h2v1h-2zM36 21h2v1h-2zM42 21h2v1h-2zM52 21h2v1h-2zM60 21h2v1h-2zM0 22h2v1h-2zM12 22h2v1h-2zM24 22h2v1h-2zM36 22h2v1h-2zM42 22h2v1h-2zM52 22h2v1h-2zM60 22h2v1h-2zM0 23h2v1h-2zM12 23h2v1h-2zM24 23h2v1h-2zM36 23h2v1h-2zM42 23h2v1h-2zM52 23h2v1h-2zM60 23h2v1h-2zM0 24h2v1h-2zM12 24h2v1h-2zM24 24h2v1h-2zM36 24h2v1h-2zM42 24h2v1h-2zM52 24h2v1h-2zM60 24h2v1h-2zM0 25h2v1h-2zM12 25h2v1h-2zM24 25h2v1h-2zM36 25h2v1h-2zM42 25h2v1h-2zM52 25h2v1h-2zM60 25h2v1h-2zM0 26h2v1h-2zM12 26h2v1h-2zM24 26h2v1h-2zM30 26h2v1h-2zM36 26h2v1h-2zM42 26h4v1h-4zM50 26h4v1h-4zM60 26h2v1h-2zM0 27h2v1h-2zM12 27h2v1h-2zM24 27h2v1h-2zM30 27h2v1h-2zM36 27h2v1h-2zM42 27h4v1h-4zM50 27h4v1h-4zM60 27h2v1h-2zM0 28h2v1h-2zM12 28h2v1h-2zM24 28h2v1h-2zM30 28h8v1h-8zM42 28h4v1h-4zM50 28h4v1h-4zM60 28h2v1h-2zM0 29h2v1h-2zM12 29h2v1h-2zM24 29h2v1h-2zM30 29h8v1h-8zM42 29h4v1h-4zM50 29h4v1h-4zM60 29h2v1h-2zM0 30h2v1h-2zM12 30h2v1h-2zM18 30h8v1h-8zM30 30h2v1h-2zM36 30h2v1h-2zM42 30h4v1h-4zM50 30h4v1h-4zM60 30h2v1h-2zM0 31h2v1h-2zM12 31h2v1h-2zM18 31h8v1h-8zM30 31h2v1h-2zM36 31h2v1h-2zM42 31h4v1h-4zM50 31h4v1h-4zM60 31h2v1h-2zM0 32h20v1h-20zM24 32h8v1h-8zM36 32h26v1h-26zM0 33h20v1h-20zM24 33h8v1h-8zM36 33h26v1h-26z" />
  <path fill="#2979FF" d="M5 2h14v1h-14zM23 2h8v1h-8zM35 2h8v1h-8zM47 2h4v1h-4zM55 2h2v1h-2zM4 3h16v1h-16zM22 3h10v1h-10zM34 3h10v1h-10zM46 3h6v1h-6zM54 3h4v1h-4zM4 4h16v1h-16zM22 4h10v1h-10zM34 4h10v1h-10zM46 4h12v1h-12zM4 5h16v1h-16zM22 5h10v1h-10zM34 5h10v1h-10zM46 5h12v1h-12zM4 6h4v1h-4zM10 6h4v1h-4zM16 6h4v1h-4zM22 6h4v1h-4zM28 6h4v1h-4zM34 6h4v1h-4zM40 6h4v1h-4zM46 6h12v1h-12zM4 7h4v1h-4zM10 7h4v1h-4zM16 7h4v1h-4zM22 7h4v1h-4zM28 7h4v1h-4zM34 7h4v1h-4zM40 7h4v1h-4zM46 7h12v1h-12zM4 8h4v1h-4zM10 8h4v1h-4zM16 8h4v1h-4zM22 8h10v1h-10zM34 8h10v1h-10zM46 8h4v1h-4zM52 8h6v1h-6zM4 9h4v1h-4zM10 9h4v1h-4zM16 9h4v1h-4zM22 9h10v1h-10zM34 9h10v1h-10zM46 9h4v1h-4zM52 9h6v1h-6zM4 10h4v1h-4zM10 10h4v1h-4zM16 10h4v1h-4zM22 10h10v1h-10zM34 10h10v1h-10zM46 10h4v1h-4zM52 10h6v1h-6zM3 18h8v1h-8zM15 18h8v1h-8zM27 18h8v1h-8zM39 18h2v1h-2zM45 18h6v1h-6zM55 18h4v1h-4zM2 19h10v1h-10zM14 19h10v1h-10zM26 19h10v1h-10zM38 19h4v1h-4zM44 19h8v1h-8zM54 19h6v1h-6zM2 20h6v1h-6zM14 20h4v1h-4zM20 20h4v1h-4zM26 20h10v1h-10zM38 20h4v1h-4zM44 20h8v1h-8zM54 20h6v1h-6zM2 21h6v1h-6zM14 21h4v1h-4zM20 21h4v1h-4zM26 21h10v1h-10zM38 21h4v1h-4zM45 21h6v1h-6zM54 21h5v1h-5zM2 22h9v1h-9zM14 22h10v1h-10zM26 22h4v1h-4zM32 22h4v1h-4zM38 22h4v1h-4zM46 22h4v1h-4zM54 22h4v1h-4zM3 23h9v1h-9zM14 23h10v1h-10zM26 23h4v1h-4zM33 23h2v1h-2zM38 23h4v1h-4zM46 23h4v1h-4zM54 23h4v1h-4zM6 24h6v1h-6zM14 24h10v1h-10zM26 24h4v1h-4zM38 24h4v1h-4zM46 24h4v1h-4zM54 24h5v1h-5zM6 25h6v1h-6zM14 25h9v1h-9zM26 25h4v1h-4zM38 25h4v1h-4zM46 25h4v1h-4zM54 25h6v1h-6zM2 26h10v1h-10zM14 26h4v1h-4zM26 26h4v1h-4zM38 26h4v1h-4zM46 26h4v1h-4zM54 26h6v1h-6z" />
  <path fill="#0E4193" d="M8 6h2v1h-2zM14 6h2v1h-2zM26 6h2v1h-2zM38 6h2v1h-2zM8 7h2v1h-2zM14 7h2v1h-2zM26 7h2v1h-2zM38 7h2v1h-2zM8 8h2v1h-2zM14 8h2v1h-2zM50 8h2v1h-2zM8 9h2v1h-2zM14 9h2v1h-2zM50 9h2v1h-2zM50 10h2v1h-2zM50 11h2v1h-2zM4 12h4v1h-4zM10 12h4v1h-4zM16 12h4v1h-4zM22 12h10v1h-10zM34 12h10v1h-10zM46 12h4v1h-4zM52 12h6v1h-6zM4 13h4v1h-4zM10 13h4v1h-4zM16 13h4v1h-4zM22 13h10v1h-10zM34 13h10v1h-10zM46 13h4v1h-4zM52 13h6v1h-6zM4 14h4v1h-4zM10 14h4v1h-4zM16 14h4v1h-4zM22 14h10v1h-10zM34 14h10v1h-10zM46 14h4v1h-4zM52 14h6v1h-6zM4 15h4v1h-4zM10 15h4v1h-4zM16 15h4v1h-4zM22 15h10v1h-10zM34 15h10v1h-10zM46 15h4v1h-4zM52 15h6v1h-6zM8 20h4v1h-4zM18 20h2v1h-2zM8 21h4v1h-4zM18 21h2v1h-2zM30 22h2v1h-2zM44 22h2v1h-2zM50 22h2v1h-2zM58 22h2v1h-2zM30 23h2v1h-2zM44 23h2v1h-2zM50 23h2v1h-2zM58 23h2v1h-2zM2 24h4v1h-4zM30 24h6v1h-6zM44 24h2v1h-2zM50 24h2v1h-2zM2 25h4v1h-4zM30 25h6v1h-6zM44 25h2v1h-2zM50 25h2v1h-2zM18 26h6v1h-6zM32 26h4v1h-4zM18 27h6v1h-6zM32 27h4v1h-4zM2 28h10v1h-10zM14 28h10v1h-10zM26 28h4v1h-4zM38 28h4v1h-4zM46 28h4v1h-4zM54 28h6v1h-6zM2 29h10v1h-10zM14 29h10v1h-10zM26 29h4v1h-4zM38 29h4v1h-4zM46 29h4v1h-4zM54 29h6v1h-6zM2 30h10v1h-10zM14 30h4v1h-4zM26 30h4v1h-4zM38 30h4v1h-4zM46 30h4v1h-4zM54 30h6v1h-6zM2 31h10v1h-10zM14 31h4v1h-4zM26 31h4v1h-4zM38 31h4v1h-4zM46 31h4v1h-4zM54 31h6v1h-6z" />
  <path fill="#1A5BDE" d="M4 2h1v1h-1zM19 2h1v1h-1zM22 2h1v1h-1zM31 2h1v1h-1zM34 2h1v1h-1zM43 2h1v1h-1zM46 2h1v1h-1zM51 2h1v1h-1zM54 2h1v1h-1zM57 2h1v1h-1zM2 18h1v1h-1zM11 18h1v1h-1zM14 18h1v1h-1zM23 18h1v1h-1zM26 18h1v1h-1zM35 18h1v1h-1zM38 18h1v1h-1zM41 18h1v1h-1zM44 18h1v1h-1zM51 18h1v1h-1zM54 18h1v1h-1zM59 18h1v1h-1zM44 21h1v1h-1zM51 21h1v1h-1zM59 21h1v1h-1zM11 22h1v1h-1zM2 23h1v1h-1zM32 23h1v1h-1zM35 23h1v1h-1zM59 24h1v1h-1zM23 25h1v1h-1z" />
  <path fill="#29AAFF" d="M4 11h4v1h-4zM10 11h4v1h-4zM16 11h4v1h-4zM22 11h10v1h-10zM34 11h10v1h-10zM46 11h4v1h-4zM52 11h6v1h-6zM2 27h10v1h-10zM14 27h4v1h-4zM26 27h4v1h-4zM38 27h4v1h-4zM46 27h4v1h-4zM54 27h6v1h-6z" />
</svg>
